<?xml version="1.0" encoding="utf-8"?>
<!-- Generator: Adobe Illustrator 22.1.0, SVG Export Plug-In . SVG Version: 6.00 Build 0)  -->
<svg version="1.1" id="Слой_1" xmlns="http://www.w3.org/2000/svg" xmlns:xlink="http://www.w3.org/1999/xlink" x="0px" y="0px"
	 viewBox="0 0 225.6 228" style="enable-background:new 0 0 225.6 228;" xml:space="preserve">
<style type="text/css">
	.st0{fill:url(#SVGID_1_);}
	.st1{fill:url(#SVGID_2_);}
	.st2{display:none;}
	.st3{display:inline;fill:url(#SVGID_3_);}
	.st4{display:inline;}
	.st5{fill:url(#SVGID_4_);}
	.st6{fill:url(#SVGID_5_);}
	.st7{fill:url(#SVGID_6_);}
	.st8{fill:url(#SVGID_7_);}
	.st9{fill:url(#SVGID_8_);}
	.st10{fill:url(#SVGID_9_);}
	.st11{fill:#F8ED9C;}
	.st12{fill:#5A0606;}
	.st13{display:inline;fill:url(#SVGID_10_);}
	.st14{display:inline;fill:#5A0606;}
</style>
<linearGradient id="SVGID_1_" gradientUnits="userSpaceOnUse" x1="194.1744" y1="32.5629" x2="36.3472" y2="190.3901">
	<stop  offset="0" style="stop-color:#FDFA94"/>
	<stop  offset="0.1545" style="stop-color:#F4E67C"/>
	<stop  offset="0.2392" style="stop-color:#EFDA6D"/>
	<stop  offset="0.2677" style="stop-color:#DEC762"/>
	<stop  offset="0.335" style="stop-color:#BBA04B"/>
	<stop  offset="0.3968" style="stop-color:#A1833A"/>
	<stop  offset="0.4505" style="stop-color:#927230"/>
	<stop  offset="0.4902" style="stop-color:#8C6C2C"/>
	<stop  offset="0.5203" style="stop-color:#917130"/>
	<stop  offset="0.5582" style="stop-color:#9E813A"/>
	<stop  offset="0.6002" style="stop-color:#B49B4B"/>
	<stop  offset="0.6449" style="stop-color:#D2BE63"/>
	<stop  offset="0.6865" style="stop-color:#F4E67E"/>
	<stop  offset="0.7724" style="stop-color:#FFFFAC"/>
	<stop  offset="0.8333" style="stop-color:#F4E67E"/>
	<stop  offset="1" style="stop-color:#936326"/>
</linearGradient>
<circle class="st0" cx="112.6" cy="114.2" r="107.1"/>
<linearGradient id="SVGID_2_" gradientUnits="userSpaceOnUse" x1="113.5286" y1="25.0053" x2="113.5286" y2="-8.7853">
	<stop  offset="0" style="stop-color:#FDFA94"/>
	<stop  offset="0.1545" style="stop-color:#F4E67C"/>
	<stop  offset="0.2392" style="stop-color:#EFDA6D"/>
	<stop  offset="0.2677" style="stop-color:#DEC762"/>
	<stop  offset="0.335" style="stop-color:#BBA04B"/>
	<stop  offset="0.3968" style="stop-color:#A1833A"/>
	<stop  offset="0.4505" style="stop-color:#927230"/>
	<stop  offset="0.4902" style="stop-color:#8C6C2C"/>
	<stop  offset="0.5203" style="stop-color:#917130"/>
	<stop  offset="0.5582" style="stop-color:#9E813A"/>
	<stop  offset="0.6002" style="stop-color:#B49B4B"/>
	<stop  offset="0.6449" style="stop-color:#D2BE63"/>
	<stop  offset="0.6865" style="stop-color:#F4E67E"/>
	<stop  offset="0.7724" style="stop-color:#FFFFAC"/>
	<stop  offset="0.8333" style="stop-color:#F4E67E"/>
	<stop  offset="1" style="stop-color:#936326"/>
</linearGradient>
<polygon class="st1" points="113.5,29.1 120.1,17.7 107,17.7 "/>
<g class="st2">
	<radialGradient id="SVGID_3_" cx="112.5825" cy="114.1548" r="94.437" gradientUnits="userSpaceOnUse">
		<stop  offset="0.3738" style="stop-color:#EDDB83"/>
		<stop  offset="0.5422" style="stop-color:#ECD981"/>
		<stop  offset="0.6406" style="stop-color:#E7D278"/>
		<stop  offset="0.7211" style="stop-color:#DFC56A"/>
		<stop  offset="0.7914" style="stop-color:#D4B456"/>
		<stop  offset="0.8434" style="stop-color:#C9A242"/>
		<stop  offset="0.9315" style="stop-color:#B69441"/>
		<stop  offset="0.9477" style="stop-color:#BD9B49"/>
		<stop  offset="0.9731" style="stop-color:#CFAD5F"/>
		<stop  offset="1" style="stop-color:#E8C67E"/>
	</radialGradient>
	<path class="st3" d="M207,114.2c0,52.2-42.3,94.4-94.4,94.4c-52.2,0-94.4-42.3-94.4-94.4c0-52.2,42.3-94.4,94.4-94.4
		C164.7,19.7,207,62,207,114.2z"/>
	<g class="st4">
		<radialGradient id="SVGID_4_" cx="112.3147" cy="114.1383" r="93.9082" gradientUnits="userSpaceOnUse">
			<stop  offset="0.3738" style="stop-color:#5C84C3"/>
			<stop  offset="0.5379" style="stop-color:#5676B5"/>
			<stop  offset="0.846" style="stop-color:#485391"/>
			<stop  offset="0.8837" style="stop-color:#464E8C"/>
			<stop  offset="0.9123" style="stop-color:#485492"/>
			<stop  offset="0.9505" style="stop-color:#4F64A3"/>
			<stop  offset="0.994" style="stop-color:#5A80BF"/>
			<stop  offset="1" style="stop-color:#5C84C3"/>
		</radialGradient>
		<path class="st5" d="M43.9,178.9l68.7-64.8l-90.5,27.1C26.4,155.5,33.9,168.4,43.9,178.9z"/>
		<radialGradient id="SVGID_5_" cx="112.3147" cy="114.1384" r="93.908" gradientUnits="userSpaceOnUse">
			<stop  offset="0.3738" style="stop-color:#5C84C3"/>
			<stop  offset="0.5379" style="stop-color:#5676B5"/>
			<stop  offset="0.846" style="stop-color:#485391"/>
			<stop  offset="0.8837" style="stop-color:#464E8C"/>
			<stop  offset="0.9123" style="stop-color:#485492"/>
			<stop  offset="0.9505" style="stop-color:#4F64A3"/>
			<stop  offset="0.994" style="stop-color:#5A80BF"/>
			<stop  offset="1" style="stop-color:#5C84C3"/>
		</radialGradient>
		<path class="st6" d="M112.6,208.6c7.5,0,14.8-0.9,21.7-2.5l-21.7-91.9l-21.7,91.9C97.8,207.7,105.1,208.6,112.6,208.6z"/>
		<radialGradient id="SVGID_6_" cx="112.3147" cy="114.1383" r="93.9081" gradientUnits="userSpaceOnUse">
			<stop  offset="0.3738" style="stop-color:#5C84C3"/>
			<stop  offset="0.5379" style="stop-color:#5676B5"/>
			<stop  offset="0.846" style="stop-color:#485391"/>
			<stop  offset="0.8837" style="stop-color:#464E8C"/>
			<stop  offset="0.9123" style="stop-color:#485492"/>
			<stop  offset="0.9505" style="stop-color:#4F64A3"/>
			<stop  offset="0.994" style="stop-color:#5A80BF"/>
			<stop  offset="1" style="stop-color:#5C84C3"/>
		</radialGradient>
		<path class="st7" d="M203.1,141.3l-90.5-27.1l68.7,64.8C191.2,168.4,198.8,155.5,203.1,141.3z"/>
		<radialGradient id="SVGID_7_" cx="112.3147" cy="114.1383" r="93.9084" gradientUnits="userSpaceOnUse">
			<stop  offset="0.3738" style="stop-color:#5C84C3"/>
			<stop  offset="0.5379" style="stop-color:#5676B5"/>
			<stop  offset="0.846" style="stop-color:#485391"/>
			<stop  offset="0.8837" style="stop-color:#464E8C"/>
			<stop  offset="0.9123" style="stop-color:#485492"/>
			<stop  offset="0.9505" style="stop-color:#4F64A3"/>
			<stop  offset="0.994" style="stop-color:#5A80BF"/>
			<stop  offset="1" style="stop-color:#5C84C3"/>
		</radialGradient>
		<path class="st8" d="M181.3,49.4l-68.7,64.8L203.1,87C198.8,72.8,191.2,59.9,181.3,49.4z"/>
		<radialGradient id="SVGID_8_" cx="112.3147" cy="114.1383" r="93.9076" gradientUnits="userSpaceOnUse">
			<stop  offset="0.3738" style="stop-color:#5C84C3"/>
			<stop  offset="0.5379" style="stop-color:#5676B5"/>
			<stop  offset="0.846" style="stop-color:#485391"/>
			<stop  offset="0.8837" style="stop-color:#464E8C"/>
			<stop  offset="0.9123" style="stop-color:#485492"/>
			<stop  offset="0.9505" style="stop-color:#4F64A3"/>
			<stop  offset="0.994" style="stop-color:#5A80BF"/>
			<stop  offset="1" style="stop-color:#5C84C3"/>
		</radialGradient>
		<path class="st9" d="M22.1,87l90.5,27.1L43.9,49.4C33.9,59.9,26.4,72.8,22.1,87z"/>
		<radialGradient id="SVGID_9_" cx="112.3147" cy="114.1384" r="93.9081" gradientUnits="userSpaceOnUse">
			<stop  offset="0.3738" style="stop-color:#5C84C3"/>
			<stop  offset="0.5379" style="stop-color:#5676B5"/>
			<stop  offset="0.846" style="stop-color:#485391"/>
			<stop  offset="0.8837" style="stop-color:#464E8C"/>
			<stop  offset="0.9123" style="stop-color:#485492"/>
			<stop  offset="0.9505" style="stop-color:#4F64A3"/>
			<stop  offset="0.994" style="stop-color:#5A80BF"/>
			<stop  offset="1" style="stop-color:#5C84C3"/>
		</radialGradient>
		<path class="st10" d="M112.6,19.7c-7.5,0-14.8,0.9-21.7,2.5l21.7,91.9l21.7-91.9C127.3,20.6,120.1,19.7,112.6,19.7z"/>
	</g>
	<g class="st4">
		<g>
			<path class="st11" d="M110,183.1h-1.5v-5.1h1.2l2.3,2.5c0.2,0.2,0.4,0.4,0.6,0.5c0.2,0.1,0.3,0.1,0.5,0.1c0.2,0,0.4-0.1,0.5-0.2
				c0.1-0.1,0.2-0.4,0.2-0.6c0-0.2-0.1-0.5-0.2-0.7c-0.1-0.2-0.3-0.4-0.5-0.5l0.8-1.4c0.4,0.3,0.8,0.6,1,1.1c0.2,0.5,0.4,1,0.4,1.6
				c0,0.5-0.1,0.9-0.2,1.3s-0.4,0.7-0.7,0.9c-0.3,0.2-0.7,0.3-1.1,0.3c-0.4,0-0.7-0.1-1-0.2c-0.3-0.2-0.7-0.4-1.1-0.9l-1.1-1.2
				V183.1z"/>
			<path class="st11" d="M108.8,185c0.3-0.4,0.7-0.8,1.2-1c0.5-0.2,1.1-0.4,1.8-0.4s1.3,0.1,1.8,0.4c0.5,0.2,0.9,0.6,1.2,1
				c0.3,0.4,0.4,0.9,0.4,1.5c0,0.6-0.1,1.1-0.4,1.5c-0.3,0.4-0.7,0.8-1.2,1c-0.5,0.2-1.1,0.4-1.8,0.4s-1.3-0.1-1.8-0.4
				c-0.5-0.2-0.9-0.6-1.2-1c-0.3-0.4-0.4-0.9-0.4-1.5C108.4,185.9,108.5,185.4,108.8,185z M110.3,187.2c0.3,0.2,0.8,0.3,1.4,0.3
				c0.7,0,1.1-0.1,1.4-0.3c0.3-0.2,0.5-0.4,0.5-0.7c0-0.3-0.2-0.6-0.5-0.8c-0.3-0.2-0.8-0.3-1.4-0.3c-0.7,0-1.1,0.1-1.4,0.3
				c-0.3,0.2-0.5,0.4-0.5,0.8C109.9,186.8,110,187.1,110.3,187.2z"/>
			<path class="st11" d="M109.1,195c-0.4-0.4-0.6-0.9-0.7-1.6h-1v-1.1h1c0-0.5,0.1-0.9,0.2-1.3c0.1-0.4,0.3-0.8,0.5-1l1.4,0.6
				c-0.2,0.3-0.4,0.6-0.5,1c-0.1,0.4-0.2,0.8-0.2,1.1c0,0.7,0.2,1.1,0.5,1.1c0.2,0,0.3-0.1,0.4-0.3c0.1-0.2,0.2-0.5,0.3-1
				c0.1-0.5,0.2-0.9,0.3-1.2c0.1-0.3,0.3-0.6,0.6-0.9c0.3-0.2,0.6-0.4,1.1-0.4c0.5,0,1,0.2,1.4,0.6c0.4,0.4,0.6,0.9,0.7,1.7h1v1.1
				h-1c0,0.4-0.1,0.7-0.2,1c-0.1,0.3-0.2,0.6-0.4,0.9l-1.4-0.6c0.3-0.6,0.5-1.2,0.5-1.8c0-0.4-0.1-0.6-0.2-0.8
				c-0.1-0.2-0.3-0.3-0.4-0.3c-0.2,0-0.3,0.1-0.4,0.3c-0.1,0.2-0.2,0.5-0.3,1c-0.1,0.5-0.2,0.9-0.3,1.2c-0.1,0.3-0.3,0.6-0.6,0.9
				c-0.3,0.2-0.6,0.4-1.1,0.4C110,195.6,109.5,195.4,109.1,195z"/>
		</g>
		<g>
			<path class="st11" d="M110.1,45.6h6.6v1.9h-5.1v1.2h-1.4V45.6z"/>
			<path class="st11" d="M116.4,43.2c-0.3,0.4-0.7,0.8-1.2,1c-0.5,0.2-1.1,0.4-1.8,0.4c-0.7,0-1.3-0.1-1.8-0.4
				c-0.5-0.2-0.9-0.6-1.2-1c-0.3-0.4-0.4-0.9-0.4-1.5c0-0.6,0.1-1.1,0.4-1.5c0.3-0.4,0.7-0.8,1.2-1c0.5-0.2,1.1-0.4,1.8-0.4
				c0.7,0,1.3,0.1,1.8,0.4c0.5,0.2,0.9,0.6,1.2,1c0.3,0.4,0.4,0.9,0.4,1.5C116.8,42.3,116.6,42.8,116.4,43.2z M114.8,41
				c-0.3-0.2-0.8-0.3-1.4-0.3c-0.7,0-1.1,0.1-1.4,0.3c-0.3,0.2-0.5,0.4-0.5,0.7c0,0.3,0.2,0.6,0.5,0.8c0.3,0.2,0.8,0.3,1.4,0.3
				c0.7,0,1.1-0.1,1.4-0.3c0.3-0.2,0.5-0.4,0.5-0.8C115.2,41.4,115.1,41.2,114.8,41z"/>
			<path class="st11" d="M116,33.2c0.4,0.4,0.6,0.9,0.7,1.6h1v1.1h-1c0,0.5-0.1,0.9-0.2,1.3c-0.1,0.4-0.3,0.8-0.5,1l-1.4-0.6
				c0.2-0.3,0.4-0.6,0.5-1c0.1-0.4,0.2-0.8,0.2-1.1c0-0.7-0.2-1.1-0.5-1.1c-0.2,0-0.3,0.1-0.4,0.3c-0.1,0.2-0.2,0.5-0.3,1
				c-0.1,0.5-0.2,0.9-0.3,1.2c-0.1,0.3-0.3,0.6-0.6,0.9c-0.3,0.2-0.6,0.4-1.1,0.4c-0.5,0-1-0.2-1.4-0.6c-0.4-0.4-0.6-0.9-0.7-1.7h-1
				v-1.1h1c0-0.4,0.1-0.7,0.2-1c0.1-0.3,0.2-0.6,0.4-0.9l1.4,0.6c-0.3,0.6-0.5,1.2-0.5,1.8c0,0.4,0.1,0.6,0.2,0.8
				c0.1,0.2,0.3,0.3,0.4,0.3c0.2,0,0.3-0.1,0.4-0.3c0.1-0.2,0.2-0.5,0.3-1c0.1-0.5,0.2-0.9,0.3-1.2c0.1-0.3,0.3-0.6,0.6-0.9
				c0.3-0.2,0.6-0.4,1.1-0.4C115.2,32.6,115.6,32.8,116,33.2z"/>
		</g>
		<g>
			<path class="st11" d="M179.3,78.9l0.7,1.3l-4.4,2.5l-0.6-1l1-3.2c0.1-0.3,0.1-0.6,0.1-0.7c0-0.2-0.1-0.3-0.1-0.5
				c-0.1-0.2-0.3-0.3-0.4-0.3c-0.2,0-0.4,0-0.6,0.2c-0.2,0.1-0.4,0.3-0.5,0.5s-0.2,0.4-0.2,0.7l-1.6,0c0-0.5,0.2-1,0.4-1.4
				c0.3-0.4,0.7-0.8,1.2-1.1c0.4-0.2,0.9-0.4,1.3-0.4c0.4-0.1,0.8,0,1.1,0.2c0.3,0.2,0.6,0.4,0.8,0.8c0.2,0.3,0.3,0.6,0.3,1
				c0,0.4-0.1,0.8-0.2,1.4l-0.5,1.6L179.3,78.9z"/>
			<path class="st11" d="M184.5,76.8c-0.1,0.5-0.5,1-1,1.4l0.5,0.9l-1,0.6l-0.5-0.9c-0.4,0.2-0.8,0.4-1.3,0.5
				c-0.4,0.1-0.8,0.1-1.1,0.1l-0.2-1.5c0.4,0,0.7,0,1.1-0.1c0.4-0.1,0.8-0.2,1.1-0.4c0.6-0.4,0.8-0.7,0.7-1
				c-0.1-0.2-0.3-0.2-0.5-0.2c-0.2,0-0.6,0.1-1,0.2c-0.5,0.2-0.9,0.3-1.2,0.3c-0.3,0.1-0.7,0-1-0.1c-0.3-0.1-0.6-0.4-0.9-0.8
				c-0.3-0.5-0.3-1-0.2-1.5c0.1-0.5,0.5-1,1.1-1.5l-0.5-0.9l1-0.6l0.5,0.9c0.3-0.1,0.7-0.3,1-0.3c0.3-0.1,0.6-0.1,0.9-0.1l0.2,1.5
				c-0.7,0-1.3,0.2-1.8,0.5c-0.3,0.2-0.5,0.4-0.6,0.5c-0.1,0.2-0.1,0.3,0,0.5c0.1,0.2,0.2,0.2,0.5,0.2c0.2,0,0.5-0.1,1-0.2
				c0.5-0.2,0.9-0.3,1.2-0.3c0.3-0.1,0.7,0,1,0.1c0.3,0.1,0.6,0.4,0.9,0.8C184.6,75.8,184.6,76.3,184.5,76.8z"/>
		</g>
		<g>
			<path class="st11" d="M54.8,150.9l-3.3-5.7l1.6-0.9l2.6,4.5l1.1-0.6l0.7,1.2L54.8,150.9z"/>
			<path class="st11" d="M48.5,151.1c-0.6-0.1-1-0.4-1.3-1c-0.2-0.4-0.3-0.7-0.3-1.1c0-0.4,0.2-0.8,0.4-1.2c0.3-0.4,0.7-0.7,1.2-1.1
				c0.4-0.2,0.8-0.4,1.3-0.5c0.5-0.1,0.9-0.2,1.3-0.2l0.1,1.5c-0.3,0-0.6,0-1,0.1c-0.3,0.1-0.6,0.2-0.9,0.4
				c-0.3,0.2-0.5,0.3-0.6,0.5c-0.1,0.2-0.1,0.4,0,0.6c0.1,0.2,0.3,0.3,0.5,0.3c0.2,0,0.5-0.1,0.9-0.3l1.5-0.9l1.6,3.5l-3.6,2.1
				l-0.7-1.2l2.3-1.3l-0.4-0.9l-0.4,0.2C49.8,151,49.1,151.2,48.5,151.1z"/>
			<path class="st11" d="M41.7,151.6c0.1-0.5,0.5-1,1-1.4l-0.5-0.9l1-0.6l0.5,0.9c0.4-0.2,0.8-0.4,1.3-0.5c0.4-0.1,0.8-0.1,1.1-0.1
				l0.2,1.5c-0.4,0-0.7,0-1.1,0.1c-0.4,0.1-0.8,0.2-1.1,0.4c-0.6,0.4-0.8,0.7-0.7,1c0.1,0.2,0.3,0.2,0.5,0.2c0.2,0,0.6-0.1,1-0.2
				c0.5-0.2,0.9-0.3,1.2-0.3c0.3-0.1,0.7,0,1,0.1c0.3,0.1,0.6,0.4,0.9,0.8c0.3,0.5,0.3,1,0.2,1.5c-0.1,0.5-0.5,1-1.1,1.5l0.5,0.9
				l-1,0.6l-0.5-0.9c-0.3,0.2-0.7,0.3-1,0.3c-0.3,0.1-0.6,0.1-0.9,0.1L44,155c0.7,0,1.3-0.2,1.8-0.5c0.3-0.2,0.5-0.4,0.6-0.5
				c0.1-0.2,0.1-0.3,0-0.5c-0.1-0.2-0.2-0.2-0.5-0.2c-0.2,0-0.5,0.1-1,0.2c-0.5,0.2-0.9,0.3-1.2,0.3c-0.3,0.1-0.7,0-1-0.1
				c-0.3-0.1-0.6-0.4-0.9-0.8C41.6,152.6,41.5,152.1,41.7,151.6z"/>
		</g>
		<g>
			<path class="st11" d="M178.5,149.8l-3.3,5.7l-1.6-0.9l2.6-4.4l-1.1-0.6l0.7-1.2L178.5,149.8z"/>
			<path class="st11" d="M180.7,158c-0.5,0.1-1.1,0.1-1.8-0.2l-0.5,0.9l-1-0.6l0.5-0.9c-0.4-0.3-0.7-0.6-1-0.9
				c-0.3-0.3-0.5-0.6-0.7-0.9l1.2-0.9c0.2,0.3,0.4,0.6,0.6,0.9c0.3,0.3,0.6,0.5,0.9,0.7c0.6,0.4,1,0.4,1.2,0.1
				c0.1-0.2,0.1-0.3-0.1-0.5c-0.1-0.2-0.4-0.4-0.7-0.7c-0.4-0.3-0.7-0.6-0.9-0.9c-0.2-0.3-0.4-0.6-0.4-0.9c-0.1-0.4,0-0.7,0.2-1.1
				c0.3-0.5,0.7-0.8,1.2-0.9c0.5-0.1,1.1-0.1,1.8,0.2l0.5-0.9l1,0.6l-0.5,0.9c0.3,0.2,0.6,0.4,0.8,0.7c0.2,0.2,0.4,0.5,0.6,0.8
				l-1.2,0.9c-0.4-0.6-0.8-1.1-1.3-1.4c-0.3-0.2-0.6-0.3-0.8-0.3c-0.2,0-0.3,0.1-0.4,0.2c-0.1,0.2-0.1,0.3,0.1,0.5
				c0.1,0.2,0.4,0.4,0.7,0.7c0.4,0.3,0.7,0.7,0.9,0.9c0.2,0.3,0.4,0.6,0.4,0.9c0.1,0.4,0,0.7-0.2,1.1
				C181.6,157.5,181.2,157.8,180.7,158z"/>
		</g>
		<g>
			<path class="st11" d="M48.9,80.2l3.3-5.7l1.6,0.9l-2.6,4.4l1.1,0.6l-0.7,1.2L48.9,80.2z"/>
			<path class="st11" d="M46.8,72.1c0.5-0.1,1.1-0.1,1.8,0.2l0.5-0.9l1,0.6l-0.5,0.9c0.4,0.3,0.7,0.6,1,0.9c0.3,0.3,0.5,0.6,0.7,0.9
				L50,75.5c-0.2-0.3-0.4-0.6-0.6-0.9c-0.3-0.3-0.6-0.5-0.9-0.7c-0.6-0.4-1-0.4-1.2-0.1c-0.1,0.2-0.1,0.3,0.1,0.5
				c0.1,0.2,0.4,0.4,0.7,0.7c0.4,0.3,0.7,0.7,0.9,0.9c0.2,0.3,0.4,0.6,0.4,0.9c0.1,0.4,0,0.7-0.2,1.1c-0.3,0.5-0.7,0.8-1.2,0.9
				c-0.5,0.1-1.1,0.1-1.8-0.2l-0.5,0.9l-1-0.6l0.5-0.9c-0.3-0.2-0.6-0.4-0.8-0.7c-0.2-0.2-0.4-0.5-0.6-0.8l1.2-0.9
				c0.4,0.6,0.8,1.1,1.3,1.4c0.3,0.2,0.6,0.3,0.8,0.3c0.2,0,0.3-0.1,0.4-0.2c0.1-0.2,0.1-0.3-0.1-0.5c-0.1-0.2-0.4-0.4-0.7-0.7
				c-0.4-0.3-0.7-0.7-0.9-0.9c-0.2-0.3-0.4-0.6-0.4-0.9c-0.1-0.4,0-0.7,0.2-1.1C45.9,72.5,46.2,72.2,46.8,72.1z"/>
		</g>
	</g>
	<g class="st4">
		<path class="st12" d="M91.4,142.7c0.3-0.3,0.7-0.4,1.1-0.5l0.5,1.5c-0.6,0.1-1,0.3-1.2,0.6c-0.1,0.2-0.2,0.5-0.1,0.7
			c0.1,0.2,0.2,0.4,0.5,0.5l2.4,1.4l1.1-2l1.2,0.7l-2.1,3.6l-3.6-2.1c-0.7-0.4-1.2-0.9-1.3-1.5c-0.2-0.6,0-1.2,0.4-2
			C90.7,143.3,91,142.9,91.4,142.7z"/>
		<path class="st12" d="M87.7,151.4l1.4-2.4l-0.8-1.1l1-1.6l4.2,5.8l-0.9,1.6l-7.1-0.8l1-1.7L87.7,151.4z M89.1,151.6l2.2,0.3
			l-1.4-1.8L89.1,151.6z"/>
		<path class="st12" d="M84.7,154.6c0.5-0.3,1.1-0.5,1.7-0.5c0.6,0,1.2,0.1,1.8,0.5c0.6,0.3,1,0.8,1.3,1.3c0.3,0.5,0.4,1.1,0.4,1.7
			c0,0.6-0.2,1.2-0.6,1.8c-0.3,0.5-0.7,0.9-1.1,1.2c-0.4,0.3-0.9,0.5-1.4,0.6l-0.3-1.6c0.7-0.1,1.1-0.4,1.4-1
			c0.2-0.3,0.3-0.6,0.3-0.9c0-0.3-0.1-0.6-0.2-0.9c-0.2-0.3-0.4-0.5-0.7-0.7c-0.3-0.2-0.6-0.3-1-0.3c-0.3,0-0.6,0.1-0.9,0.2
			c-0.3,0.2-0.5,0.4-0.7,0.7c-0.3,0.5-0.3,1.1-0.1,1.7l-1.5,0.5c-0.2-0.5-0.3-1-0.2-1.5c0.1-0.5,0.2-1,0.5-1.6
			C83.7,155.4,84.2,155,84.7,154.6z"/>
		<path class="st12" d="M82.4,162.6l-0.3-1l-1.4-0.8l0.9-1.6l5.7,3.3l-0.9,1.6l-2.4-1.4l1.1,3.6l-1,1.8l-1.2-3.8l-4.6,0.6l1.1-1.9
			L82.4,162.6z"/>
		<path class="st12" d="M81.3,172.4c-0.4,0.3-0.8,0.4-1.2,0.5c-0.4,0-0.9-0.1-1.3-0.3c-0.4-0.2-0.7-0.6-0.9-1
			c-0.2-0.4-0.3-0.8-0.2-1.3c0-0.5,0.2-1,0.5-1.5l0.6-1l-1.5-0.9l0.9-1.6l5.7,3.3l-1.5,2.6C82,171.8,81.7,172.2,81.3,172.4z
			 M79.2,170.3c0,0.3,0.2,0.5,0.5,0.6c0.3,0.2,0.5,0.2,0.8,0.1c0.2-0.1,0.5-0.3,0.7-0.6l0.5-0.9l-1.7-1l-0.5,0.9
			C79.2,169.8,79.2,170.1,79.2,170.3z"/>
		<path class="st12" d="M74.2,172.7c0.5-0.3,1.1-0.5,1.7-0.5c0.6,0,1.2,0.1,1.8,0.5c0.6,0.3,1,0.8,1.3,1.3c0.3,0.5,0.4,1.1,0.4,1.7
			c0,0.6-0.2,1.2-0.6,1.8c-0.3,0.6-0.8,1.1-1.3,1.4c-0.5,0.3-1.1,0.5-1.7,0.5c-0.6,0-1.2-0.1-1.8-0.5c-0.6-0.3-1-0.8-1.3-1.3
			c-0.3-0.5-0.4-1.1-0.4-1.7c0-0.6,0.2-1.2,0.6-1.8C73.2,173.5,73.7,173.1,74.2,172.7z M74,175.8c0,0.3,0.1,0.6,0.3,0.9
			c0.2,0.3,0.4,0.5,0.7,0.7c0.3,0.2,0.6,0.3,1,0.3c0.3,0,0.6-0.1,0.9-0.2c0.3-0.2,0.5-0.4,0.7-0.7c0.2-0.3,0.2-0.6,0.2-0.9
			c0-0.3-0.1-0.6-0.3-0.9c-0.2-0.3-0.4-0.5-0.7-0.7c-0.3-0.2-0.6-0.3-1-0.3c-0.3,0-0.6,0.1-0.9,0.2c-0.3,0.2-0.5,0.4-0.7,0.7
			C74,175.2,74,175.5,74,175.8z"/>
		<path class="st12" d="M74.4,181.9l1-1.7l1.3,0.7l-3,5.1l-1.3-0.7l1-1.7l-4.4-2.6l0.9-1.6L74.4,181.9z"/>
	</g>
	<g class="st4">
		<path class="st12" d="M180.9,114.9c0.4,0.4,0.7,0.9,0.7,1.5c0,0.4-0.1,0.8-0.3,1.1c-0.2,0.3-0.5,0.6-1,0.8c-0.4,0.2-1,0.3-1.6,0.3
			c-0.5,0-0.9-0.1-1.4-0.2c-0.5-0.1-0.8-0.3-1.2-0.5l0.7-1.4c0.3,0.2,0.6,0.3,0.9,0.4c0.3,0.1,0.6,0.1,1,0.1c0.3,0,0.6-0.1,0.8-0.2
			c0.2-0.1,0.3-0.3,0.3-0.5c0-0.2-0.1-0.4-0.3-0.5c-0.2-0.1-0.5-0.2-1-0.2l-1.8,0l0.3-3.8l4.2,0l0,1.4l-2.6,0l-0.1,1l0.4,0
			C179.8,114.3,180.4,114.5,180.9,114.9z"/>
		<path class="st12" d="M183.5,118.3c-0.4-0.3-0.8-0.7-1-1.2c-0.2-0.5-0.4-1.1-0.4-1.8c0-0.7,0.1-1.3,0.4-1.8c0.2-0.5,0.6-0.9,1-1.2
			c0.4-0.3,0.9-0.4,1.5-0.4c0.6,0,1.1,0.1,1.5,0.4c0.4,0.3,0.8,0.7,1,1.2c0.2,0.5,0.4,1.1,0.4,1.8c0,0.7-0.1,1.3-0.4,1.8
			c-0.2,0.5-0.6,0.9-1,1.2c-0.4,0.3-0.9,0.4-1.5,0.4C184.4,118.7,183.9,118.5,183.5,118.3z M185.7,116.7c0.2-0.3,0.3-0.8,0.3-1.4
			c0-0.7-0.1-1.1-0.3-1.4c-0.2-0.3-0.4-0.5-0.7-0.5c-0.3,0-0.6,0.1-0.8,0.5c-0.2,0.3-0.3,0.8-0.3,1.4c0,0.7,0.1,1.1,0.3,1.4
			c0.2,0.3,0.4,0.5,0.8,0.5C185.3,117.1,185.5,117,185.7,116.7z"/>
		<path class="st12" d="M193.5,117.9c-0.4,0.4-0.9,0.6-1.6,0.7l0,1l-1.1,0l0-1c-0.5,0-0.9-0.1-1.3-0.2c-0.4-0.1-0.8-0.3-1-0.5
			l0.6-1.4c0.3,0.2,0.6,0.4,1,0.5c0.4,0.1,0.8,0.2,1.1,0.2c0.7,0,1.1-0.2,1.1-0.5c0-0.2-0.1-0.3-0.3-0.4c-0.2-0.1-0.5-0.2-1-0.3
			c-0.5-0.1-0.9-0.2-1.2-0.3c-0.3-0.1-0.6-0.3-0.9-0.6c-0.2-0.3-0.4-0.6-0.4-1.1c0-0.5,0.2-1,0.6-1.4c0.4-0.4,1-0.6,1.7-0.7l0-1
			l1.1,0l0,1c0.4,0,0.7,0.1,1,0.2c0.3,0.1,0.6,0.2,0.9,0.4l-0.6,1.4c-0.6-0.3-1.2-0.5-1.8-0.5c-0.4,0-0.6,0.1-0.8,0.2
			c-0.2,0.1-0.3,0.3-0.3,0.4c0,0.2,0.1,0.3,0.3,0.4c0.2,0.1,0.5,0.2,1,0.3c0.5,0.1,0.9,0.2,1.2,0.3c0.3,0.1,0.6,0.3,0.9,0.6
			c0.2,0.3,0.4,0.6,0.4,1.1C194.1,117.1,193.9,117.6,193.5,117.9z"/>
	</g>
	<g class="st4">
		<path class="st12" d="M50.5,116.3l0-6.6l1.9,0l0,5.1l1.2,0l0,1.4L50.5,116.3z"/>
		<path class="st12" d="M48.2,110c0.4,0.3,0.8,0.7,1,1.2c0.2,0.5,0.4,1.1,0.4,1.8c0,0.7-0.1,1.3-0.4,1.8c-0.2,0.5-0.6,0.9-1,1.2
			c-0.4,0.3-0.9,0.4-1.5,0.4c-0.6,0-1.1-0.1-1.5-0.4s-0.8-0.7-1-1.2c-0.2-0.5-0.4-1.1-0.4-1.8c0-0.7,0.1-1.3,0.4-1.8
			c0.2-0.5,0.6-0.9,1-1.2c0.4-0.3,0.9-0.4,1.5-0.4C47.2,109.6,47.7,109.7,48.2,110z M45.9,111.6c-0.2,0.3-0.3,0.8-0.3,1.4
			c0,0.7,0.1,1.1,0.3,1.4c0.2,0.3,0.4,0.5,0.7,0.5c0.3,0,0.6-0.1,0.8-0.5c0.2-0.3,0.3-0.8,0.3-1.4c0-0.7-0.1-1.1-0.3-1.4
			c-0.2-0.3-0.4-0.5-0.8-0.5C46.3,111.1,46.1,111.3,45.9,111.6z"/>
		<path class="st12" d="M41.7,110c0.4,0.3,0.8,0.7,1,1.2c0.2,0.5,0.4,1.1,0.4,1.8c0,0.7-0.1,1.3-0.4,1.8c-0.2,0.5-0.6,0.9-1,1.2
			c-0.4,0.3-0.9,0.4-1.5,0.4c-0.6,0-1.1-0.1-1.5-0.4c-0.4-0.3-0.8-0.7-1-1.2c-0.2-0.5-0.4-1.1-0.4-1.8c0-0.7,0.1-1.3,0.4-1.8
			c0.2-0.5,0.6-0.9,1-1.2c0.4-0.3,0.9-0.4,1.5-0.4C40.8,109.6,41.3,109.7,41.7,110z M39.5,111.5c-0.2,0.3-0.3,0.8-0.3,1.4
			c0,0.7,0.1,1.1,0.3,1.4c0.2,0.3,0.4,0.5,0.7,0.5c0.3,0,0.6-0.1,0.8-0.5c0.2-0.3,0.3-0.8,0.3-1.4c0-0.7-0.1-1.1-0.3-1.4
			c-0.2-0.3-0.4-0.5-0.8-0.5C39.9,111.1,39.7,111.2,39.5,111.5z"/>
		<path class="st12" d="M31.7,110.3c0.4-0.4,0.9-0.6,1.6-0.7l0-1l1.1,0l0,1c0.5,0,0.9,0.1,1.3,0.2c0.4,0.1,0.8,0.3,1,0.5l-0.6,1.4
			c-0.3-0.2-0.6-0.4-1-0.5c-0.4-0.1-0.8-0.2-1.1-0.2c-0.7,0-1.1,0.2-1.1,0.5c0,0.2,0.1,0.3,0.3,0.4c0.2,0.1,0.5,0.2,1,0.3
			c0.5,0.1,0.9,0.2,1.2,0.3c0.3,0.1,0.6,0.3,0.9,0.6c0.2,0.3,0.4,0.6,0.4,1.1c0,0.5-0.2,1-0.6,1.4c-0.4,0.4-1,0.6-1.7,0.7l0,1
			l-1.1,0l0-1c-0.4,0-0.7-0.1-1-0.2c-0.3-0.1-0.6-0.2-0.9-0.4l0.6-1.4c0.6,0.3,1.2,0.5,1.8,0.5c0.4,0,0.6-0.1,0.8-0.2
			c0.2-0.1,0.3-0.3,0.3-0.4c0-0.2-0.1-0.3-0.3-0.4c-0.2-0.1-0.5-0.2-1-0.3c-0.5-0.1-0.9-0.2-1.2-0.3c-0.3-0.1-0.6-0.3-0.9-0.6
			c-0.2-0.3-0.4-0.6-0.4-1.1C31.1,111.1,31.3,110.7,31.7,110.3z"/>
	</g>
	<g class="st4">
		<path class="st12" d="M149,179.4c-0.1,0.6-0.4,1-1,1.3c-0.4,0.2-0.7,0.3-1.1,0.3c-0.4,0-0.8-0.2-1.2-0.4c-0.4-0.3-0.7-0.7-1.1-1.2
			c-0.2-0.4-0.4-0.8-0.5-1.3c-0.1-0.5-0.2-0.9-0.2-1.3l1.5-0.1c0,0.3,0,0.6,0.1,1c0.1,0.3,0.2,0.6,0.3,0.9c0.2,0.3,0.3,0.5,0.5,0.6
			c0.2,0.1,0.4,0.1,0.6,0c0.2-0.1,0.3-0.3,0.3-0.5c0-0.2-0.1-0.5-0.3-0.9l-0.9-1.6l3.5-1.6l2.1,3.6l-1.3,0.7l-1.3-2.3l-0.9,0.4
			l0.2,0.4C148.9,178.1,149.1,178.8,149,179.4z"/>
		<path class="st12" d="M149.5,186.2c-0.5-0.1-1-0.5-1.4-1.1l-0.9,0.5l-0.6-1l0.9-0.5c-0.2-0.4-0.4-0.9-0.4-1.3
			c-0.1-0.4-0.1-0.8-0.1-1.1l1.5-0.1c0,0.4,0,0.7,0.1,1.1c0.1,0.4,0.2,0.8,0.4,1.1c0.4,0.6,0.7,0.8,1,0.7c0.2-0.1,0.2-0.2,0.2-0.5
			c0-0.2-0.1-0.6-0.2-1c-0.2-0.5-0.3-0.9-0.3-1.2c-0.1-0.3,0-0.7,0.1-1c0.1-0.3,0.4-0.6,0.8-0.8c0.5-0.3,1-0.3,1.5-0.2
			c0.5,0.1,1,0.5,1.4,1.1l0.9-0.5l0.6,1l-0.9,0.5c0.1,0.3,0.3,0.7,0.3,1c0.1,0.3,0.1,0.6,0.1,0.9l-1.5,0.2c0-0.7-0.2-1.3-0.5-1.8
			c-0.2-0.3-0.4-0.5-0.5-0.6c-0.2-0.1-0.3-0.1-0.5,0c-0.2,0.1-0.2,0.2-0.2,0.5c0,0.2,0.1,0.5,0.2,1c0.2,0.5,0.3,0.9,0.3,1.3
			c0.1,0.3,0,0.7-0.1,1c-0.1,0.3-0.4,0.6-0.8,0.8C150.5,186.3,150,186.4,149.5,186.2z"/>
	</g>
	<g class="st4">
		<path class="st12" d="M76.1,48.9c0.1-0.6,0.4-1,1-1.3c0.4-0.2,0.7-0.3,1.1-0.3c0.4,0,0.8,0.2,1.2,0.4c0.4,0.3,0.7,0.7,1,1.2
			c0.2,0.4,0.4,0.8,0.5,1.3c0.1,0.5,0.2,0.9,0.2,1.3l-1.5,0.1c0-0.3,0-0.6-0.1-1c-0.1-0.3-0.2-0.6-0.3-0.9c-0.2-0.3-0.3-0.5-0.5-0.6
			c-0.2-0.1-0.4-0.1-0.6,0c-0.2,0.1-0.3,0.3-0.3,0.5c0,0.2,0.1,0.5,0.3,0.9l0.9,1.6l-3.5,1.6l-2.1-3.6l1.3-0.7l1.3,2.3l0.9-0.4
			L76.7,51C76.2,50.2,76,49.5,76.1,48.9z"/>
		<path class="st12" d="M75.7,42c0.5,0.1,1,0.5,1.4,1.1l0.9-0.5l0.6,1l-0.9,0.5c0.2,0.4,0.4,0.9,0.4,1.3c0.1,0.4,0.1,0.8,0.1,1.1
			l-1.5,0.1c0-0.4,0-0.7-0.1-1.1c-0.1-0.4-0.2-0.8-0.4-1.1c-0.4-0.6-0.7-0.8-1-0.7C75.1,43.8,75,44,75,44.2c0,0.2,0.1,0.6,0.2,1
			c0.2,0.5,0.3,0.9,0.3,1.2c0.1,0.3,0,0.7-0.1,1c-0.1,0.3-0.4,0.6-0.8,0.8c-0.5,0.3-1,0.3-1.5,0.2c-0.5-0.1-1-0.5-1.4-1.1l-0.9,0.5
			l-0.6-1l0.9-0.5c-0.1-0.3-0.3-0.7-0.3-1c-0.1-0.3-0.1-0.6-0.1-0.9l1.5-0.2c0,0.7,0.2,1.3,0.5,1.8c0.2,0.3,0.4,0.5,0.5,0.6
			c0.2,0.1,0.3,0.1,0.5,0c0.2-0.1,0.2-0.2,0.2-0.5c0-0.2-0.1-0.5-0.2-1c-0.2-0.5-0.3-0.9-0.3-1.3c-0.1-0.3,0-0.7,0.1-1
			c0.1-0.3,0.4-0.6,0.8-0.8C74.7,42,75.2,41.9,75.7,42z"/>
	</g>
	<linearGradient id="SVGID_10_" gradientUnits="userSpaceOnUse" x1="93.4721" y1="133.2653" x2="137.4372" y2="89.3002">
		<stop  offset="0" style="stop-color:#FDFA94"/>
		<stop  offset="0.1545" style="stop-color:#F4E67C"/>
		<stop  offset="0.2392" style="stop-color:#EFDA6D"/>
		<stop  offset="0.2677" style="stop-color:#DEC762"/>
		<stop  offset="0.335" style="stop-color:#BBA04B"/>
		<stop  offset="0.3968" style="stop-color:#A1833A"/>
		<stop  offset="0.4505" style="stop-color:#927230"/>
		<stop  offset="0.4902" style="stop-color:#8C6C2C"/>
		<stop  offset="0.5203" style="stop-color:#917130"/>
		<stop  offset="0.5582" style="stop-color:#9E813A"/>
		<stop  offset="0.6002" style="stop-color:#B49B4B"/>
		<stop  offset="0.6449" style="stop-color:#D2BE63"/>
		<stop  offset="0.6865" style="stop-color:#F4E67E"/>
		<stop  offset="0.7724" style="stop-color:#FFFFAC"/>
		<stop  offset="0.8333" style="stop-color:#F4E67E"/>
		<stop  offset="1" style="stop-color:#936326"/>
	</linearGradient>
	<path class="st13" d="M112.6,88.3c14.3,0,25.9,11.6,25.9,25.9c0,14.3-11.6,25.9-25.9,25.9c-14.3,0-25.9-11.6-25.9-25.9
		C86.7,99.9,98.3,88.3,112.6,88.3 M112.6,87.7c-14.6,0-26.5,11.9-26.5,26.5c0,14.6,11.9,26.5,26.5,26.5c14.6,0,26.5-11.9,26.5-26.5
		C139,99.6,127.2,87.7,112.6,87.7L112.6,87.7z"/>
</g>
<g class="st2">
	<path class="st14" d="M145.4,64.7l-4.7-2.7l0,0l-0.1,1.4l-1.2-0.4l0.2-2l0.7-1.1l5.9,3.4L145.4,64.7z"/>
	<path class="st14" d="M148,59.5l-1-0.9c0.5-0.3,1-0.8,1.3-1.3c0.2-0.3,0.3-0.6,0.2-0.8c0-0.2-0.1-0.4-0.3-0.5
		c-0.2-0.1-0.4-0.1-0.6,0c-0.2,0.1-0.5,0.3-0.8,0.6c-1,0.9-2,1.1-2.8,0.6c-0.5-0.3-0.8-0.8-0.9-1.4c-0.1-0.6,0.1-1.3,0.5-2
		c0.3-0.6,0.8-1.1,1.2-1.4l0.9,0.9c-0.4,0.3-0.8,0.6-1,1.1c-0.2,0.3-0.2,0.5-0.2,0.8s0.1,0.4,0.3,0.5c0.2,0.1,0.4,0.1,0.6,0
		c0.2-0.1,0.5-0.3,0.9-0.6c0.5-0.4,1-0.7,1.4-0.8c0.4-0.1,0.9,0,1.3,0.2c0.5,0.3,0.9,0.8,1,1.4c0.1,0.6-0.1,1.3-0.5,2.1
		c-0.2,0.3-0.4,0.6-0.7,0.9C148.5,59.2,148.2,59.4,148,59.5z"/>
	<path class="st14" d="M151.3,54.5l-6-3.5c0.2-0.5,0.5-1.2,1-1.9c0.5-0.8,1-1.4,1.6-1.6c0.6-0.2,1.2-0.2,1.8,0.2
		c0.6,0.4,1,0.8,1.1,1.4c0.2,0.7,0,1.5-0.5,2.4c-0.1,0.2-0.2,0.3-0.3,0.4l2.2,1.3L151.3,54.5z M147,50.3l1.8,1
		c0.1-0.1,0.2-0.2,0.3-0.4c0.2-0.4,0.3-0.7,0.2-1c-0.1-0.3-0.2-0.6-0.5-0.7c-0.3-0.2-0.6-0.2-0.8-0.1s-0.5,0.3-0.7,0.7
		C147.2,49.9,147.1,50.1,147,50.3z"/>
	<path class="st14" d="M148.2,45.7l0.8-1.4l6.1,3.5l-0.8,1.4L148.2,45.7z"/>
	<path class="st14" d="M156.6,45.4l-0.7,1.3l-6.1-3.5l0.9-1.6l3,0c0.8,0,1.7,0.1,2.7,0.2l0,0c-0.8-0.3-1.6-0.8-2.6-1.4l-1.8-1
		l0.7-1.3l6.1,3.5l-0.8,1.4l-3.1-0.1c-1.1,0-2.1-0.1-2.8-0.2l0,0c0.8,0.4,1.7,0.9,2.7,1.5L156.6,45.4z"/>
</g>
</svg>
